<?xml version="1.0" encoding="UTF-8"?>
<svg id="_レイヤー_2" data-name="レイヤー 2" xmlns="http://www.w3.org/2000/svg" viewBox="0 0 34.54 33.25">
  <defs>
    <style>
      .cls-1 {
        fill: #cc5c89;
      }

      .cls-2 {
        fill: #fff;
      }
    </style>
  </defs>
  <g id="_レイヤー_1-2" data-name="レイヤー 1">
    <rect class="cls-1" width="34.54" height="33.25"/>
    <path class="cls-2" d="M16.47,25.46c-.7-.16-1.36-.36-1.97-.61-.18-.06-.37-.09-.57-.09-.23,0-.45.07-.65.19-.21.13-.48.35-.84.65l-1.05-4.47-.05-.18s.02-.06.06-.09c.04-.03.08-.05.11-.07.04-.01.07-.03.08-.04.03-.02.08-.02.14-.02.09,0,.18.06.25.18,1.63,2.6,3.7,3.9,6.19,3.9.99,0,1.85-.25,2.58-.76.73-.5,1.09-1.28,1.09-2.34,0-.56-.16-1.08-.47-1.55-.31-.47-.78-.84-1.39-1.11-.63-.29-1.53-.63-2.71-1.01-.96-.29-1.73-.57-2.31-.85-1.01-.49-1.73-1.08-2.17-1.76-.44-.69-.65-1.46-.65-2.32,0-.64.15-1.32.46-2.05.31-.73.84-1.36,1.6-1.89s1.8-.8,3.09-.8c.49,0,.97.05,1.43.16s.99.27,1.57.48c.28.08.49.11.64.11.23,0,.44-.06.64-.17.2-.11.41-.31.64-.58l1.15,3.92.04.18c0,.08-.07.15-.21.21-.09.03-.16.05-.21.05-.08,0-.15-.05-.23-.16-.18-.31-.51-.72-.99-1.24-.48-.52-1.11-1.01-1.9-1.47s-1.69-.69-2.68-.69c-.92,0-1.61.2-2.09.59s-.78.81-.93,1.25c-.15.44-.22.8-.22,1.08,0,1.01.55,1.8,1.65,2.38.32.17.72.34,1.2.5.48.17.97.33,1.48.48,1.41.43,2.44.8,3.09,1.12,1.07.53,1.82,1.18,2.24,1.93.42.75.63,1.53.63,2.34,0,.92-.23,1.74-.7,2.48-.47.73-1.14,1.31-2.02,1.74-.88.43-1.92.64-3.13.64-.6,0-1.25-.08-1.95-.24Z"/>
  </g>
</svg>