<?xml version="1.0" encoding="UTF-8"?>
<svg id="_レイヤー_2" data-name="レイヤー 2" xmlns="http://www.w3.org/2000/svg" viewBox="0 0 66 66">
  <defs>
    <style>
      .cls-1 {
        fill: #ccaf3a;
      }
    </style>
  </defs>
  <g id="CTA_料金プラン_" data-name="CTA(料金プラン)">
    <path class="cls-1" d="M66,33c0,2.83-3.09,5.22-3.79,7.83-.72,2.7.74,6.31-.63,8.68-1.39,2.4-5.26,2.93-7.21,4.87-1.95,1.95-2.47,5.82-4.87,7.21-2.37,1.37-5.97-.1-8.68.62-2.61.7-5,3.79-7.83,3.79s-5.22-3.09-7.83-3.79c-2.7-.72-6.31.74-8.68-.63-2.4-1.39-2.93-5.26-4.87-7.21-1.95-1.95-5.82-2.47-7.21-4.87-1.37-2.36.1-5.97-.62-8.68-.7-2.61-3.79-5-3.79-7.83s3.09-5.22,3.79-7.83c.72-2.7-.74-6.31.62-8.68,1.39-2.4,5.26-2.93,7.21-4.87,1.95-1.95,2.47-5.82,4.87-7.21,2.37-1.37,5.97.1,8.68-.63,2.61-.7,5-3.79,7.83-3.79s5.22,3.09,7.83,3.79c2.7.72,6.31-.74,8.68.63,2.4,1.39,2.93,5.26,4.87,7.21,1.95,1.95,5.82,2.47,7.2,4.87,1.37,2.36-.1,5.97.62,8.68.7,2.61,3.79,5,3.79,7.83Z"/>
  </g>
</svg>