<?xml version="1.0" encoding="UTF-8"?>
<svg id="_レイヤー_2" data-name="レイヤー 2" xmlns="http://www.w3.org/2000/svg" viewBox="0 0 17.75 24.07">
  <defs>
    <style>
      .cls-1 {
        fill: #fff;
      }
    </style>
  </defs>
  <g id="FV">
    <g id="_ボタン" data-name="ボタン">
      <path class="cls-1" d="M3.49,15.62c6.89,11.85,12.67,7.77,12.67,7.77,0,0,1.48-.82,1.58-1.67.06-.57-.57-1.46-1.12-2.38-.52-.86-.97-1.68-1.43-1.94-1.01-.56-2.46.76-2.46.76-2.56,1.9-6.24-4.37-6.24-4.37h0s-3.81-6.19-.95-7.61c0,0,1.82-.69,1.79-1.84-.01-.53-.52-1.32-1.03-2.19-.55-.91-1.04-1.89-1.57-2.1-.79-.3-2.2.65-2.2.65,0,0-6.28,3.26.97,14.91h0Z"/>
    </g>
  </g>
</svg>